<svg xmlns="http://www.w3.org/2000/svg" viewBox="0 0 512 512"><title>Artboard 108</title><g id="Skull_Head" data-name="Skull Head"><path d="M128,320v71.11111a42.66671,42.66671,0,0,0,8.53333,25.6L179.2,473.6a42.66666,42.66666,0,0,0,34.13333,17.06667h85.33334A42.66666,42.66666,0,0,0,332.8,473.6l42.66667-56.88889a42.66671,42.66671,0,0,0,8.53333-25.6V320Z" style="fill:#999aac"/><path d="M332.79948,473.60026l0-.00006a149.33573,149.33573,0,0,0,29.86715-89.60143V320H149.33333v63.99877a149.33573,149.33573,0,0,0,29.86715,89.60143l0,.00006a42.666,42.666,0,0,0,34.13281,17.06641h85.33334A42.666,42.666,0,0,0,332.79948,473.60026Z" style="fill:#cacad4"/><rect x="149.33333" y="320" width="213.33333" height="85.33333" rx="21.33333" ry="21.33333" style="fill:#4c4f6e"/><rect x="213.33335" y="448" width="85.33331" height="42.66667" rx="21.33331" ry="21.33331" style="fill:#eaeaee"/><path d="M448,192c0-94.25651-85.96094-170.66667-192-170.66667S64,97.74349,64,192c0,30.85156,9.34375,59.71224,25.45313,84.6862a63.41129,63.41129,0,0,0,81.21354,82.0612v3.91927A21.33333,21.33333,0,0,0,192,384H320a21.33333,21.33333,0,0,0,21.33333-21.33333V358.7474a63.45551,63.45551,0,0,0,81.21355-82.0612C438.65625,251.71224,448,222.85156,448,192Z" style="fill:#999aac"/><ellipse cx="256" cy="202.66667" rx="149.33333" ry="160" style="fill:#cacad4"/><path d="M192,298.66667H320a0,0,0,0,1,0,0v64A21.33333,21.33333,0,0,1,298.66667,384H213.33333A21.33333,21.33333,0,0,1,192,362.66667v-64A0,0,0,0,1,192,298.66667Z" style="fill:#cacad4"/><rect x="213.33333" y="341.33333" width="85.33333" height="42.66667" rx="21.33331" ry="21.33331" style="fill:#eaeaee"/><circle cx="160" cy="288" r="53.33333" style="fill:#cacad4"/><circle cx="352" cy="288" r="53.33333" style="fill:#cacad4"/><rect x="234.66667" y="298.66665" width="42.66667" height="64" rx="21.33331" ry="21.33331" style="fill:#2c2f53"/><rect x="192" y="384" width="128" height="64" rx="31.99997" ry="31.99997" style="fill:#2c2f53"/><ellipse cx="192" cy="277.33333" rx="44.82327" ry="40.39434" transform="translate(-139.86878 216.99355) rotate(-45)" style="fill:#2c2f53"/><ellipse cx="320" cy="277.33333" rx="38.49285" ry="46.46499" transform="translate(-102.37845 307.50322) rotate(-45)" style="fill:#2c2f53"/><ellipse cx="128" cy="320" rx="16.57872" ry="25.20247" transform="translate(-188.78384 184.2355) rotate(-45)" style="fill:#eaeaee"/><ellipse cx="384" cy="320" rx="25.20247" ry="16.57872" transform="translate(-113.80317 365.25483) rotate(-45)" style="fill:#eaeaee"/><ellipse cx="170.66667" cy="106.66667" rx="51.73312" ry="31.03987" transform="translate(-25.43761 151.9215) rotate(-45)" style="fill:#eaeaee"/></g></svg>